Coordinates
version=1
nRows=14
nColumns=24
inDegrees=yes

Units are S.I. units (second, meters, Newtons, ...)
Angles are in degrees.

endheader
time	pelvis_tilt	pelvis_list	pelvis_rotation	pelvis_tx	pelvis_ty	pelvis_tz	hip_flexion_r	hip_adduction_r	hip_rotation_r	knee_angle_r	ankle_angle_r	subtalar_angle_r	mtp_angle_r	hip_flexion_l	hip_adduction_l	hip_rotation_l	knee_angle_l	ankle_angle_l	subtalar_angle_l	mtp_angle_l	lumbar_extension	lumbar_bending	lumbar_rotation
      2.82000000	      7.51162915	      3.53100933	     -3.19914550	      0.18818101	      1.02279577	      0.00393995	      2.60595007	     -7.48852377	     -4.65497714	    -63.85316605	     -1.50952048	      0.00000000	      0.00000000	      1.88981763	      7.26033252	     -0.70808588	    -13.18713114	      8.31492340	      0.00000000	      0.00000000	    -18.39440368	     -7.57691774	     -1.01456578
      2.83000000	      7.61156170	      3.39389712	     -3.07603954	      0.18759702	      1.02386353	      0.00277850	      3.76929485	     -7.45823204	     -4.56512458	    -65.50171033	     -0.79951514	      0.00000000	      0.00000000	      1.07113936	      7.21651925	     -0.47627500	    -12.73730212	      8.46180603	      0.00000000	      0.00000000	    -18.55805693	     -7.33856881	     -1.53138877
      2.84000000	      7.70871579	      3.22716392	     -2.93004259	      0.18688921	      1.02497060	      0.00163241	      4.90242406	     -7.35648608	     -4.45931560	    -66.91818656	     -0.05593193	      0.00000000	      0.00000000	      0.27564846	      7.13849179	     -0.20314973	    -12.31487846	      8.60393809	      0.00000000	      0.00000000	    -18.72405684	     -7.06273731	     -2.02166673
      2.85000000	      7.78509368	      3.06462773	     -2.77021083	      0.18607876	      1.02607717	      0.00054770	      6.01996367	     -7.20928172	     -4.32425547	    -68.09705771	      0.76773590	      0.00000000	      0.00000000	     -0.48317346	      7.05498632	      0.09685180	    -11.90427408	      8.72823981	      0.00000000	      0.00000000	    -18.87309253	     -6.79448285	     -2.51888978
      2.86000000	      7.85863607	      2.87139242	     -2.59358718	      0.18526941	      1.02717663	     -0.00054547	      7.08298316	     -6.99213072	     -4.17124895	    -69.02814129	      1.49609282	      0.00000000	      0.00000000	     -1.22355723	      6.93547650	      0.40383679	    -11.53078089	      8.85709062	      0.00000000	      0.00000000	    -19.00660170	     -6.48871651	     -2.95800331
      2.87000000	      7.92554871	      2.66068961	     -2.42045116	      0.18434484	      1.02825387	     -0.00154551	      8.11653766	     -6.71938709	     -4.00630601	    -69.71294553	      2.17207521	      0.00000000	      0.00000000	     -1.93712131	      6.78468971	      0.69865366	    -11.18197947	      8.98229669	      0.00000000	      0.00000000	    -19.14339037	     -6.17521610	     -3.37017554
      2.88000000	      7.98515582	      2.43070765	     -2.27912379	      0.18337073	      1.02927211	     -0.00244186	      9.12500230	     -6.40625929	     -3.83123181	    -70.15985312	      2.70997447	      0.00000000	      0.00000000	     -2.63184990	      6.60306220	      0.97082690	    -10.85261590	      9.12256083	      0.00000000	      0.00000000	    -19.26762450	     -5.85846034	     -3.72474961
      2.89000000	      8.02029015	      2.19148062	     -2.11648065	      0.18230750	      1.03018951	     -0.00331608	     10.10061205	     -6.03325719	     -3.62139664	    -70.38618987	      3.29659367	      0.00000000	      0.00000000	     -3.29258424	      6.40386367	      1.21144730	    -10.51216709	      9.25568885	      0.00000000	      0.00000000	    -19.38228290	     -5.51899051	     -4.04714258
      2.90000000	      8.04328270	      1.95270521	     -1.98791765	      0.18117724	      1.03098572	     -0.00407807	     11.05667134	     -5.64623088	     -3.40270672	    -70.39259624	      3.79818050	      0.00000000	      0.00000000	     -3.92215246	      6.19738358	      1.39396918	    -10.19410906	      9.39647301	      0.00000000	      0.00000000	    -19.48377234	     -5.19819995	     -4.32708473
      2.91000000	      8.05120749	      1.70402910	     -1.88936782	      0.17996098	      1.03166709	     -0.00466003	     11.98185393	     -5.21481077	     -3.16996116	    -70.17867838	      4.31993981	      0.00000000	      0.00000000	     -4.51359518	      5.96633201	      1.49936677	     -9.90222245	      9.53122480	      0.00000000	      0.00000000	    -19.58074310	     -4.88818725	     -4.56774755
      2.92000000	      8.01948006	      1.48381312	     -1.82235717	      0.17871026	      1.03215768	     -0.00523485	     12.91438730	     -4.81941777	     -2.93123549	    -69.76845091	      4.79427970	      0.00000000	      0.00000000	     -5.07391292	      5.77039934	      1.57839615	     -9.57630687	      9.69764883	      0.00000000	      0.00000000	    -19.63164768	     -4.60483165	     -4.77853710
      2.93000000	      7.97294533	      1.30371104	     -1.76147974	      0.17733976	      1.03250293	     -0.00567853	     13.81325903	     -4.44441898	     -2.67967959	    -69.15449939	      5.26924123	      0.00000000	      0.00000000	     -5.57958044	      5.60669094	      1.57979623	     -9.30635911	      9.84764970	      0.00000000	      0.00000000	    -19.68400976	     -4.37628943	     -4.99584753
      2.94000000	      7.87971412	      1.07774113	     -1.77299712	      0.17595684	      1.03265858	     -0.00590556	     14.70323221	     -4.00520441	     -2.42852571	    -68.32111695	      5.90138005	      0.00000000	      0.00000000	     -6.05610277	      5.38650629	      1.53126991	     -8.98804999	     10.01624433	      0.00000000	      0.00000000	    -19.68577760	     -4.12535458	     -5.11924921
      2.95000000	      7.78020982	      0.89750764	     -1.79154354	      0.17448488	      1.03269243	     -0.00605948	     15.53557793	     -3.60192037	     -2.16106101	    -67.26899153	      6.51796530	      0.00000000	      0.00000000	     -6.48803207	      5.21356741	      1.40342910	     -8.72965438	     10.18285692	      0.00000000	      0.00000000	    -19.69446078	     -3.92606884	     -5.25425668
